<mxfile host="app.diagrams.net" agent="Mozilla/5.0 (Macintosh; Intel Mac OS X 10_15_7) AppleWebKit/537.36 (KHTML, like Gecko) Chrome/127.0.0.0 Safari/537.36 Edg/127.0.0.0" version="24.7.6">
  <diagram name="第 1 页" id="UXrACzeSZ_RcdEhUXwJr">
    <mxGraphModel dx="1986" dy="759" grid="1" gridSize="10" guides="1" tooltips="1" connect="1" arrows="1" fold="1" page="1" pageScale="1" pageWidth="827" pageHeight="1169" math="0" shadow="0">
      <root>
        <mxCell id="0" />
        <mxCell id="1" parent="0" />
        <mxCell id="3rXj8dMfUJS7_eeTLvov-1" value="Duck" style="swimlane;fontStyle=1;align=center;verticalAlign=top;childLayout=stackLayout;horizontal=1;startSize=26;horizontalStack=0;resizeParent=1;resizeParentMax=0;resizeLast=0;collapsible=1;marginBottom=0;whiteSpace=wrap;html=1;" vertex="1" parent="1">
          <mxGeometry x="180" y="70" width="300" height="150" as="geometry" />
        </mxCell>
        <mxCell id="3rXj8dMfUJS7_eeTLvov-2" value="+ FlyBehavier : flyBehavier&lt;br&gt;+ Quackbehavier: quackbehavier" style="text;strokeColor=none;fillColor=none;align=left;verticalAlign=top;spacingLeft=4;spacingRight=4;overflow=hidden;rotatable=0;points=[[0,0.5],[1,0.5]];portConstraint=eastwest;whiteSpace=wrap;html=1;" vertex="1" parent="3rXj8dMfUJS7_eeTLvov-1">
          <mxGeometry y="26" width="300" height="44" as="geometry" />
        </mxCell>
        <mxCell id="3rXj8dMfUJS7_eeTLvov-3" value="" style="line;strokeWidth=1;fillColor=none;align=left;verticalAlign=middle;spacingTop=-1;spacingLeft=3;spacingRight=3;rotatable=0;labelPosition=right;points=[];portConstraint=eastwest;strokeColor=inherit;" vertex="1" parent="3rXj8dMfUJS7_eeTLvov-1">
          <mxGeometry y="70" width="300" height="8" as="geometry" />
        </mxCell>
        <mxCell id="3rXj8dMfUJS7_eeTLvov-4" value="+ fly(&amp;nbsp;FlyBehavier&amp;nbsp; flyBehavier)&lt;br&gt;+ quack( Quackbehavier quackbehavier)" style="text;strokeColor=none;fillColor=none;align=left;verticalAlign=top;spacingLeft=4;spacingRight=4;overflow=hidden;rotatable=0;points=[[0,0.5],[1,0.5]];portConstraint=eastwest;whiteSpace=wrap;html=1;" vertex="1" parent="3rXj8dMfUJS7_eeTLvov-1">
          <mxGeometry y="78" width="300" height="72" as="geometry" />
        </mxCell>
        <mxCell id="3rXj8dMfUJS7_eeTLvov-5" value="DuckA" style="swimlane;fontStyle=1;align=center;verticalAlign=top;childLayout=stackLayout;horizontal=1;startSize=26;horizontalStack=0;resizeParent=1;resizeParentMax=0;resizeLast=0;collapsible=1;marginBottom=0;whiteSpace=wrap;html=1;" vertex="1" parent="1">
          <mxGeometry x="-250" y="466" width="300" height="106" as="geometry" />
        </mxCell>
        <mxCell id="3rXj8dMfUJS7_eeTLvov-7" value="" style="line;strokeWidth=1;fillColor=none;align=left;verticalAlign=middle;spacingTop=-1;spacingLeft=3;spacingRight=3;rotatable=0;labelPosition=right;points=[];portConstraint=eastwest;strokeColor=inherit;" vertex="1" parent="3rXj8dMfUJS7_eeTLvov-5">
          <mxGeometry y="26" width="300" height="8" as="geometry" />
        </mxCell>
        <mxCell id="3rXj8dMfUJS7_eeTLvov-8" value="+ fly(&amp;nbsp;FlyBehavier&amp;nbsp; flyBehavier)&lt;br&gt;+ quack( Quackbehavier quackbehavier)" style="text;strokeColor=none;fillColor=none;align=left;verticalAlign=top;spacingLeft=4;spacingRight=4;overflow=hidden;rotatable=0;points=[[0,0.5],[1,0.5]];portConstraint=eastwest;whiteSpace=wrap;html=1;" vertex="1" parent="3rXj8dMfUJS7_eeTLvov-5">
          <mxGeometry y="34" width="300" height="72" as="geometry" />
        </mxCell>
        <mxCell id="3rXj8dMfUJS7_eeTLvov-9" value="DuckB" style="swimlane;fontStyle=1;align=center;verticalAlign=top;childLayout=stackLayout;horizontal=1;startSize=26;horizontalStack=0;resizeParent=1;resizeParentMax=0;resizeLast=0;collapsible=1;marginBottom=0;whiteSpace=wrap;html=1;" vertex="1" parent="1">
          <mxGeometry x="170" y="466" width="300" height="106" as="geometry" />
        </mxCell>
        <mxCell id="3rXj8dMfUJS7_eeTLvov-11" value="" style="line;strokeWidth=1;fillColor=none;align=left;verticalAlign=middle;spacingTop=-1;spacingLeft=3;spacingRight=3;rotatable=0;labelPosition=right;points=[];portConstraint=eastwest;strokeColor=inherit;" vertex="1" parent="3rXj8dMfUJS7_eeTLvov-9">
          <mxGeometry y="26" width="300" height="8" as="geometry" />
        </mxCell>
        <mxCell id="3rXj8dMfUJS7_eeTLvov-12" value="+ fly(&amp;nbsp;FlyBehavier&amp;nbsp; flyBehavier)&lt;br&gt;+ quack( Quackbehavier quackbehavier)" style="text;strokeColor=none;fillColor=none;align=left;verticalAlign=top;spacingLeft=4;spacingRight=4;overflow=hidden;rotatable=0;points=[[0,0.5],[1,0.5]];portConstraint=eastwest;whiteSpace=wrap;html=1;" vertex="1" parent="3rXj8dMfUJS7_eeTLvov-9">
          <mxGeometry y="34" width="300" height="72" as="geometry" />
        </mxCell>
        <mxCell id="3rXj8dMfUJS7_eeTLvov-13" value="DuckC" style="swimlane;fontStyle=1;align=center;verticalAlign=top;childLayout=stackLayout;horizontal=1;startSize=26;horizontalStack=0;resizeParent=1;resizeParentMax=0;resizeLast=0;collapsible=1;marginBottom=0;whiteSpace=wrap;html=1;" vertex="1" parent="1">
          <mxGeometry x="620" y="466" width="300" height="106" as="geometry" />
        </mxCell>
        <mxCell id="3rXj8dMfUJS7_eeTLvov-15" value="" style="line;strokeWidth=1;fillColor=none;align=left;verticalAlign=middle;spacingTop=-1;spacingLeft=3;spacingRight=3;rotatable=0;labelPosition=right;points=[];portConstraint=eastwest;strokeColor=inherit;" vertex="1" parent="3rXj8dMfUJS7_eeTLvov-13">
          <mxGeometry y="26" width="300" height="8" as="geometry" />
        </mxCell>
        <mxCell id="3rXj8dMfUJS7_eeTLvov-16" value="+ fly(&amp;nbsp;FlyBehavier&amp;nbsp; flyBehavier)&lt;br&gt;+ quack( Quackbehavier quackbehavier)" style="text;strokeColor=none;fillColor=none;align=left;verticalAlign=top;spacingLeft=4;spacingRight=4;overflow=hidden;rotatable=0;points=[[0,0.5],[1,0.5]];portConstraint=eastwest;whiteSpace=wrap;html=1;" vertex="1" parent="3rXj8dMfUJS7_eeTLvov-13">
          <mxGeometry y="34" width="300" height="72" as="geometry" />
        </mxCell>
        <mxCell id="3rXj8dMfUJS7_eeTLvov-21" value="Extends" style="endArrow=block;endSize=16;endFill=0;html=1;rounded=0;exitX=0.5;exitY=0;exitDx=0;exitDy=0;entryX=0.48;entryY=1.042;entryDx=0;entryDy=0;entryPerimeter=0;" edge="1" parent="1" source="3rXj8dMfUJS7_eeTLvov-5" target="3rXj8dMfUJS7_eeTLvov-4">
          <mxGeometry width="160" relative="1" as="geometry">
            <mxPoint x="350" y="420" as="sourcePoint" />
            <mxPoint x="510" y="420" as="targetPoint" />
          </mxGeometry>
        </mxCell>
        <mxCell id="3rXj8dMfUJS7_eeTLvov-22" value="Extends" style="endArrow=block;endSize=16;endFill=0;html=1;rounded=0;" edge="1" parent="1">
          <mxGeometry width="160" relative="1" as="geometry">
            <mxPoint x="320" y="460" as="sourcePoint" />
            <mxPoint x="319.33" y="240" as="targetPoint" />
          </mxGeometry>
        </mxCell>
        <mxCell id="3rXj8dMfUJS7_eeTLvov-23" value="Extends" style="endArrow=block;endSize=16;endFill=0;html=1;rounded=0;exitX=0.5;exitY=0;exitDx=0;exitDy=0;" edge="1" parent="1" source="3rXj8dMfUJS7_eeTLvov-13">
          <mxGeometry width="160" relative="1" as="geometry">
            <mxPoint x="330" y="470" as="sourcePoint" />
            <mxPoint x="329" y="230" as="targetPoint" />
          </mxGeometry>
        </mxCell>
      </root>
    </mxGraphModel>
  </diagram>
</mxfile>
